<svg id="visual" viewBox="0 0 900 600" width="900" height="600" xmlns="http://www.w3.org/2000/svg" xmlns:xlink="http://www.w3.org/1999/xlink" version="1.1"><path d="M0 121L13.7 130C27.3 139 54.7 157 82 182C109.3 207 136.7 239 163.8 238C191 237 218 203 245.2 197C272.3 191 299.7 213 327 218C354.3 223 381.7 211 409 203C436.3 195 463.7 191 491 198C518.3 205 545.7 223 573 231C600.3 239 627.7 237 654.8 220C682 203 709 171 736.2 161C763.3 151 790.7 163 818 174C845.3 185 872.7 195 886.3 200L900 205L900 0L886.3 0C872.7 0 845.3 0 818 0C790.7 0 763.3 0 736.2 0C709 0 682 0 654.8 0C627.7 0 600.3 0 573 0C545.7 0 518.3 0 491 0C463.7 0 436.3 0 409 0C381.7 0 354.3 0 327 0C299.7 0 272.3 0 245.2 0C218 0 191 0 163.8 0C136.7 0 109.3 0 82 0C54.7 0 27.3 0 13.7 0L0 0Z" fill="#56565c"></path><path d="M0 259L13.7 270C27.3 281 54.7 303 82 317C109.3 331 136.7 337 163.8 337C191 337 218 331 245.2 332C272.3 333 299.7 341 327 339C354.3 337 381.7 325 409 322C436.3 319 463.7 325 491 334C518.3 343 545.7 355 573 351C600.3 347 627.7 327 654.8 305C682 283 709 259 736.2 262C763.3 265 790.7 295 818 308C845.3 321 872.7 317 886.3 315L900 313L900 203L886.3 198C872.7 193 845.3 183 818 172C790.7 161 763.3 149 736.2 159C709 169 682 201 654.8 218C627.7 235 600.3 237 573 229C545.7 221 518.3 203 491 196C463.7 189 436.3 193 409 201C381.7 209 354.3 221 327 216C299.7 211 272.3 189 245.2 195C218 201 191 235 163.8 236C136.7 237 109.3 205 82 180C54.7 155 27.3 137 13.7 128L0 119Z" fill="#44444a"></path><path d="M0 445L13.7 442C27.3 439 54.7 433 82 434C109.3 435 136.7 443 163.8 444C191 445 218 439 245.2 444C272.3 449 299.7 465 327 477C354.3 489 381.7 497 409 502C436.3 507 463.7 509 491 506C518.3 503 545.7 495 573 479C600.3 463 627.7 439 654.8 424C682 409 709 403 736.2 404C763.3 405 790.7 413 818 424C845.3 435 872.7 449 886.3 456L900 463L900 311L886.3 313C872.7 315 845.3 319 818 306C790.7 293 763.3 263 736.2 260C709 257 682 281 654.8 303C627.7 325 600.3 345 573 349C545.7 353 518.3 341 491 332C463.7 323 436.3 317 409 320C381.7 323 354.3 335 327 337C299.7 339 272.3 331 245.2 330C218 329 191 335 163.8 335C136.7 335 109.3 329 82 315C54.7 301 27.3 279 13.7 268L0 257Z" fill="#333338"></path><path d="M0 541L13.7 532C27.3 523 54.7 505 82 501C109.3 497 136.7 507 163.8 511C191 515 218 513 245.2 515C272.3 517 299.7 523 327 531C354.3 539 381.7 549 409 554C436.3 559 463.7 559 491 555C518.3 551 545.7 543 573 535C600.3 527 627.7 519 654.8 512C682 505 709 499 736.2 495C763.3 491 790.7 489 818 499C845.3 509 872.7 531 886.3 542L900 553L900 461L886.3 454C872.7 447 845.3 433 818 422C790.7 411 763.3 403 736.2 402C709 401 682 407 654.8 422C627.7 437 600.3 461 573 477C545.7 493 518.3 501 491 504C463.7 507 436.3 505 409 500C381.7 495 354.3 487 327 475C299.7 463 272.3 447 245.2 442C218 437 191 443 163.8 442C136.7 441 109.3 433 82 432C54.7 431 27.3 437 13.7 440L0 443Z" fill="#2c2c31"></path><path d="M0 601L13.7 601C27.3 601 54.7 601 82 601C109.3 601 136.7 601 163.8 601C191 601 218 601 245.2 601C272.3 601 299.7 601 327 601C354.3 601 381.7 601 409 601C436.3 601 463.7 601 491 601C518.3 601 545.7 601 573 601C600.3 601 627.7 601 654.8 601C682 601 709 601 736.2 601C763.3 601 790.7 601 818 601C845.3 601 872.7 601 886.3 601L900 601L900 551L886.3 540C872.7 529 845.3 507 818 497C790.7 487 763.3 489 736.2 493C709 497 682 503 654.8 510C627.7 517 600.3 525 573 533C545.7 541 518.3 549 491 553C463.7 557 436.3 557 409 552C381.7 547 354.3 537 327 529C299.7 521 272.3 515 245.2 513C218 511 191 513 163.8 509C136.7 505 109.3 495 82 499C54.7 503 27.3 521 13.7 530L0 539Z" fill="#26262a"></path></svg>